<?xml version="1.0" encoding="iso-8859-1"?>
<!-- Uploaded to: SVG Repo, www.svgrepo.com, Generator: SVG Repo Mixer Tools -->
<svg fill="currentColor" height="800px" width="800px" version="1.1" id="Layer_1" xmlns="http://www.w3.org/2000/svg" xmlns:xlink="http://www.w3.org/1999/xlink" 
	 viewBox="0 0 297.001 297.001" xml:space="preserve">
<g>
	<g>
		<path d="M148.5,0C91.583,0,45.276,46.306,45.276,103.224c0,38.79,21.728,74.101,55.892,91.734v54.711
			c0,26.099,21.233,47.332,47.332,47.332s47.332-21.233,47.332-47.332v-54.711c34.163-17.633,55.892-52.943,55.892-91.734
			C251.724,46.306,205.419,0,148.5,0z M148.5,276.859c-11.436,0-21.238-7.1-25.249-17.12h50.498
			C169.739,269.759,159.937,276.859,148.5,276.859z M175.691,239.598H121.31v-8.087h54.381V239.598z M135.579,136.691h25.842
			l-10.669,74.679h-4.505L135.579,136.691z M181.729,179.376c-3.667,1.603-6.037,5.225-6.037,9.228v22.766h-4.593l14.819-103.728
			c0.787-5.505-3.039-10.607-8.545-11.393c-5.501-0.785-10.606,3.038-11.393,8.545l-1.68,11.756h-31.597l-1.68-11.756
			c-0.788-5.506-5.885-9.333-11.393-8.545c-5.506,0.787-9.332,5.888-8.545,11.393l14.819,103.728h-4.593v-22.766
			c0-4.003-2.37-7.625-6.037-9.228c-30.286-13.236-49.854-43.129-49.854-76.152c0-45.811,37.271-83.082,83.082-83.082
			c45.811,0,83.082,37.271,83.082,83.082C231.583,136.247,212.015,166.139,181.729,179.376z"/>
	</g>
</g>
</svg>